<svg width="800" height="800" viewBox="0 0 800 800" fill="none" xmlns="http://www.w3.org/2000/svg">
<path d="M737.519 257.627H48.922C21.9119 257.627 0 235.715 0 208.705V48.922C0 21.9119 21.9119 0 48.922 0H737.505C764.529 0 786.441 21.9119 786.441 48.922V208.692C786.441 235.715 764.529 257.627 737.519 257.627Z" fill="#556080"/>
<path d="M737.519 515.254H48.922C21.9119 515.254 -1.52588e-05 493.342 -1.52588e-05 466.332V306.549C-1.52588e-05 279.539 21.9119 257.627 48.922 257.627H737.505C764.529 257.627 786.441 279.539 786.441 306.549V466.319C786.441 493.342 764.529 515.254 737.519 515.254Z" fill="#38454F"/>
<path d="M737.519 772.881H48.922C21.9119 772.881 -1.52588e-05 750.969 -1.52588e-05 723.959V564.176C-1.52588e-05 537.166 21.9119 515.254 48.922 515.254H737.505C764.529 515.254 786.441 537.166 786.441 564.176V723.946C786.441 750.969 764.529 772.881 737.519 772.881Z" fill="#556080"/>
<path d="M128.814 176.271C155.024 176.271 176.271 155.024 176.271 128.814C176.271 102.603 155.024 81.356 128.814 81.356C102.603 81.356 81.3559 102.603 81.3559 128.814C81.3559 155.024 102.603 176.271 128.814 176.271Z" fill="#8697CB"/>
<path d="M664.407 122.034C671.895 122.034 677.966 115.963 677.966 108.475C677.966 100.986 671.895 94.9153 664.407 94.9153C656.918 94.9153 650.847 100.986 650.847 108.475C650.847 115.963 656.918 122.034 664.407 122.034Z" fill="#8697CB"/>
<path d="M610.169 122.034C617.658 122.034 623.729 115.963 623.729 108.475C623.729 100.986 617.658 94.9153 610.169 94.9153C602.681 94.9153 596.61 100.986 596.61 108.475C596.61 115.963 602.681 122.034 610.169 122.034Z" fill="#8697CB"/>
<path d="M691.525 162.712C699.014 162.712 705.085 156.641 705.085 149.153C705.085 141.664 699.014 135.593 691.525 135.593C684.037 135.593 677.966 141.664 677.966 149.153C677.966 156.641 684.037 162.712 691.525 162.712Z" fill="#8697CB"/>
<path d="M637.288 162.712C644.777 162.712 650.847 156.641 650.847 149.153C650.847 141.664 644.777 135.593 637.288 135.593C629.8 135.593 623.729 141.664 623.729 149.153C623.729 156.641 629.8 162.712 637.288 162.712Z" fill="#8697CB"/>
<path d="M555.932 122.034C563.421 122.034 569.492 115.963 569.492 108.475C569.492 100.986 563.421 94.9153 555.932 94.9153C548.444 94.9153 542.373 100.986 542.373 108.475C542.373 115.963 548.444 122.034 555.932 122.034Z" fill="#8697CB"/>
<path d="M583.051 162.712C590.539 162.712 596.61 156.641 596.61 149.153C596.61 141.664 590.539 135.593 583.051 135.593C575.562 135.593 569.492 141.664 569.492 149.153C569.492 156.641 575.562 162.712 583.051 162.712Z" fill="#8697CB"/>
<path d="M501.695 122.034C509.184 122.034 515.254 115.963 515.254 108.475C515.254 100.986 509.184 94.9153 501.695 94.9153C494.206 94.9153 488.136 100.986 488.136 108.475C488.136 115.963 494.206 122.034 501.695 122.034Z" fill="#8697CB"/>
<path d="M528.814 162.712C536.302 162.712 542.373 156.641 542.373 149.153C542.373 141.664 536.302 135.593 528.814 135.593C521.325 135.593 515.254 141.664 515.254 149.153C515.254 156.641 521.325 162.712 528.814 162.712Z" fill="#8697CB"/>
<path d="M447.458 122.034C454.946 122.034 461.017 115.963 461.017 108.475C461.017 100.986 454.946 94.9153 447.458 94.9153C439.969 94.9153 433.898 100.986 433.898 108.475C433.898 115.963 439.969 122.034 447.458 122.034Z" fill="#8697CB"/>
<path d="M474.576 162.712C482.065 162.712 488.136 156.641 488.136 149.153C488.136 141.664 482.065 135.593 474.576 135.593C467.088 135.593 461.017 141.664 461.017 149.153C461.017 156.641 467.088 162.712 474.576 162.712Z" fill="#8697CB"/>
<path d="M128.814 433.898C155.024 433.898 176.271 412.651 176.271 386.441C176.271 360.231 155.024 338.983 128.814 338.983C102.603 338.983 81.3559 360.231 81.3559 386.441C81.3559 412.651 102.603 433.898 128.814 433.898Z" fill="#8697CB"/>
<path d="M664.407 379.661C671.895 379.661 677.966 373.59 677.966 366.102C677.966 358.613 671.895 352.542 664.407 352.542C656.918 352.542 650.847 358.613 650.847 366.102C650.847 373.59 656.918 379.661 664.407 379.661Z" fill="#8697CB"/>
<path d="M610.169 379.661C617.658 379.661 623.729 373.59 623.729 366.102C623.729 358.613 617.658 352.542 610.169 352.542C602.681 352.542 596.61 358.613 596.61 366.102C596.61 373.59 602.681 379.661 610.169 379.661Z" fill="#8697CB"/>
<path d="M691.525 420.339C699.014 420.339 705.085 414.268 705.085 406.78C705.085 399.291 699.014 393.22 691.525 393.22C684.037 393.22 677.966 399.291 677.966 406.78C677.966 414.268 684.037 420.339 691.525 420.339Z" fill="#8697CB"/>
<path d="M637.288 420.339C644.777 420.339 650.847 414.268 650.847 406.78C650.847 399.291 644.777 393.22 637.288 393.22C629.8 393.22 623.729 399.291 623.729 406.78C623.729 414.268 629.8 420.339 637.288 420.339Z" fill="#8697CB"/>
<path d="M555.932 379.661C563.421 379.661 569.492 373.59 569.492 366.102C569.492 358.613 563.421 352.542 555.932 352.542C548.444 352.542 542.373 358.613 542.373 366.102C542.373 373.59 548.444 379.661 555.932 379.661Z" fill="#8697CB"/>
<path d="M583.051 420.339C590.539 420.339 596.61 414.268 596.61 406.78C596.61 399.291 590.539 393.22 583.051 393.22C575.562 393.22 569.492 399.291 569.492 406.78C569.492 414.268 575.562 420.339 583.051 420.339Z" fill="#8697CB"/>
<path d="M501.695 379.661C509.184 379.661 515.254 373.59 515.254 366.102C515.254 358.613 509.184 352.542 501.695 352.542C494.206 352.542 488.136 358.613 488.136 366.102C488.136 373.59 494.206 379.661 501.695 379.661Z" fill="#8697CB"/>
<path d="M528.814 420.339C536.302 420.339 542.373 414.268 542.373 406.78C542.373 399.291 536.302 393.22 528.814 393.22C521.325 393.22 515.254 399.291 515.254 406.78C515.254 414.268 521.325 420.339 528.814 420.339Z" fill="#8697CB"/>
<path d="M447.458 379.661C454.946 379.661 461.017 373.59 461.017 366.102C461.017 358.613 454.946 352.542 447.458 352.542C439.969 352.542 433.898 358.613 433.898 366.102C433.898 373.59 439.969 379.661 447.458 379.661Z" fill="#8697CB"/>
<path d="M474.576 420.339C482.065 420.339 488.136 414.268 488.136 406.78C488.136 399.291 482.065 393.22 474.576 393.22C467.088 393.22 461.017 399.291 461.017 406.78C461.017 414.268 467.088 420.339 474.576 420.339Z" fill="#8697CB"/>
<path d="M128.814 691.525C155.024 691.525 176.271 670.278 176.271 644.068C176.271 617.858 155.024 596.61 128.814 596.61C102.603 596.61 81.3559 617.858 81.3559 644.068C81.3559 670.278 102.603 691.525 128.814 691.525Z" fill="#8697CB"/>
<path d="M664.407 637.288C671.895 637.288 677.966 631.217 677.966 623.729C677.966 616.24 671.895 610.169 664.407 610.169C656.918 610.169 650.847 616.24 650.847 623.729C650.847 631.217 656.918 637.288 664.407 637.288Z" fill="#8697CB"/>
<path d="M610.169 637.288C617.658 637.288 623.729 631.217 623.729 623.729C623.729 616.24 617.658 610.169 610.169 610.169C602.681 610.169 596.61 616.24 596.61 623.729C596.61 631.217 602.681 637.288 610.169 637.288Z" fill="#8697CB"/>
<path d="M691.525 677.966C699.014 677.966 705.085 671.895 705.085 664.407C705.085 656.918 699.014 650.847 691.525 650.847C684.037 650.847 677.966 656.918 677.966 664.407C677.966 671.895 684.037 677.966 691.525 677.966Z" fill="#8697CB"/>
<path d="M637.288 677.966C644.777 677.966 650.847 671.895 650.847 664.407C650.847 656.918 644.777 650.847 637.288 650.847C629.8 650.847 623.729 656.918 623.729 664.407C623.729 671.895 629.8 677.966 637.288 677.966Z" fill="#8697CB"/>
<path d="M555.932 637.288C563.421 637.288 569.492 631.217 569.492 623.729C569.492 616.24 563.421 610.169 555.932 610.169C548.444 610.169 542.373 616.24 542.373 623.729C542.373 631.217 548.444 637.288 555.932 637.288Z" fill="#8697CB"/>
<path d="M583.051 677.966C590.539 677.966 596.61 671.895 596.61 664.407C596.61 656.918 590.539 650.847 583.051 650.847C575.562 650.847 569.492 656.918 569.492 664.407C569.492 671.895 575.562 677.966 583.051 677.966Z" fill="#8697CB"/>
<path d="M501.695 637.288C509.184 637.288 515.254 631.217 515.254 623.729C515.254 616.24 509.184 610.169 501.695 610.169C494.206 610.169 488.136 616.24 488.136 623.729C488.136 631.217 494.206 637.288 501.695 637.288Z" fill="#8697CB"/>
<path d="M528.814 677.966C536.302 677.966 542.373 671.895 542.373 664.407C542.373 656.918 536.302 650.847 528.814 650.847C521.325 650.847 515.254 656.918 515.254 664.407C515.254 671.895 521.325 677.966 528.814 677.966Z" fill="#8697CB"/>
<path d="M447.458 637.288C454.946 637.288 461.017 631.217 461.017 623.729C461.017 616.24 454.946 610.169 447.458 610.169C439.969 610.169 433.898 616.24 433.898 623.729C433.898 631.217 439.969 637.288 447.458 637.288Z" fill="#8697CB"/>
<path d="M474.576 677.966C482.065 677.966 488.136 671.895 488.136 664.407C488.136 656.918 482.065 650.847 474.576 650.847C467.088 650.847 461.017 656.918 461.017 664.407C461.017 671.895 467.088 677.966 474.576 677.966Z" fill="#8697CB"/>
<path d="M538.723 340.262H459.738V261.277C459.738 250.367 450.903 241.531 439.992 241.531H361.008C350.097 241.531 341.262 250.378 341.262 261.277V340.262H262.277C251.367 340.262 242.531 349.108 242.531 360.008V438.992C242.531 449.903 251.378 458.738 262.277 458.738H341.262V537.723C341.262 548.633 350.108 557.469 361.008 557.469H439.992C450.903 557.469 459.738 548.622 459.738 537.723V458.738H538.723C549.622 458.738 558.469 449.903 558.469 438.992V360.008C558.469 349.097 549.622 340.262 538.723 340.262Z" fill="#469D59"/>
</svg>
